Coordinates
version=1
nRows=11
nColumns=36
inDegrees=yes

Units are S.I. units (second, meters, Newtons, ...)
If the header above contains a line with 'inDegrees', this indicates whether rotational values are in degrees (yes) or radians (no).

endheader
time	pelvis_tilt	pelvis_list	pelvis_rotation	pelvis_tx	pelvis_ty	pelvis_tz	hip_flexion_r	hip_adduction_r	hip_rotation_r	knee_angle_r	knee_angle_r_beta	ankle_angle_r	subtalar_angle_r	mtp_angle_r	hip_flexion_l	hip_adduction_l	hip_rotation_l	knee_angle_l	knee_angle_l_beta	ankle_angle_l	subtalar_angle_l	mtp_angle_l	lumbar_extension	lumbar_bending	lumbar_rotation	arm_flex_r	arm_add_r	arm_rot_r	elbow_flex_r	pro_sup_r	arm_flex_l	arm_add_l	arm_rot_l	elbow_flex_l	pro_sup_l
      0.00000000	    -10.99485160	     -1.83468679	     -3.33846770	      0.90039226	      0.92047306	      0.05268799	      7.28009507	     -4.34218073	     -2.22528634	      1.23125822	      0.02148951	      0.27280561	     -7.82777978	     -6.25842554	      7.81122457	     -8.96675323	     -0.32318373	      0.44808790	      0.00782061	      7.64118010	     -3.57290512	     -6.25842554	     14.53962386	      2.66125660	     -2.28756746	     22.43312465	      0.84671573	     53.22016212	    112.81681690	     80.80569133	     31.06111391	      3.40454083	     63.19332686	     99.65190318	     90.76147716
      0.01666670	    -10.08325149	     -0.89651836	     -3.99755701	      0.90030101	      0.92426490	      0.05285803	      6.54033085	     -5.51369172	     -2.27727132	      1.03758501	      0.01810927	      1.33522219	     -7.20119561	     -6.73257241	      6.68720860	     -7.98424517	     -1.29577540	      0.47166216	      0.00823206	      7.02114584	     -3.77963823	     -6.73257241	     12.80948645	      2.15997240	     -1.34402236	     25.77250048	     -1.67932514	     60.79769148	    116.11162105	     93.98908876	     32.26594043	      0.77948775	     62.11253949	    104.24266120	    101.63907168
      0.03333330	     -8.73460618	     -1.07904450	     -3.63316872	      0.89969999	      0.92550007	      0.05283480	      5.32818030	     -5.38451742	     -2.46696862	      1.40613602	      0.02454170	      2.19084718	     -7.46575200	     -6.85363457	      5.32212476	     -8.00351565	     -1.76836291	      0.66167955	      0.01154849	      7.01618762	     -4.31226065	     -6.85363457	     11.05513479	      2.09938989	     -2.07065175	     26.85671258	      0.00246234	     60.73619102	    116.21853822	     92.55887005	     33.54359217	     -0.12948825	     63.50332766	    105.50468563	    100.32070710
      0.05000000	     -7.98530641	     -1.08905797	     -3.35208173	      0.89946458	      0.92105783	      0.05272032	      4.66271756	     -5.53379844	     -3.60702458	      1.44902916	      0.02529033	      2.73213695	     -6.94818986	     -6.93433852	      4.72073457	     -7.93859734	     -2.57030243	      0.77467318	      0.01352060	      7.34853264	     -3.84105073	     -6.93433852	      9.98319980	      1.91632402	     -2.69614985	     27.87799171	      1.46428324	     60.48970417	    115.48398302	     98.65781604	     34.47036509	     -0.09071884	     62.75106203	    106.23571867	    107.10888617
      0.06666670	     -7.25982381	     -1.07851681	     -3.17871546	      0.89754622	      0.92765384	      0.05186769	      3.97804315	     -5.61342856	     -3.81593784	      1.58659405	      0.02769129	      3.15609609	     -7.22732764	     -6.94798692	      4.11798653	     -7.87272563	     -2.65913553	      0.90867162	      0.01585931	      7.26201725	     -3.82913810	     -6.94798692	      8.74265830	      1.76058668	     -2.83523209	     28.12622780	      2.00937381	     60.93884751	    115.00574313	     98.79268922	     35.33517585	      0.04346012	     63.16477256	    106.39874741	    107.06516337
      0.08333330	     -6.85836840	     -1.08605439	     -3.05576616	      0.89768517	      0.92987535	      0.05202339	      3.53457113	     -5.63185915	     -4.19248587	      1.63774812	      0.02858410	      3.40152512	     -7.43963301	     -7.33773265	      3.74501183	     -7.90231823	     -2.66926616	      0.94044513	      0.01641386	      7.25515682	     -3.53457220	     -7.33773265	      7.88847311	      1.73871659	     -3.07371618	     28.14169491	      2.37158861	     61.59583552	    114.58133912	     99.20438362	     35.86903096	      0.15652921	     63.38793406	    106.55503712	    106.55019555
      0.10000000	     -6.72903381	     -1.06033600	     -2.90775720	      0.89730748	      0.93006108	      0.05203045	      3.32135426	     -5.68978645	     -4.46460303	      1.59042838	      0.02775821	      3.23682430	     -7.85381109	     -7.41655031	      3.63170385	     -7.92399223	     -2.73854779	      0.89093431	      0.01554974	      7.07207405	     -3.08869113	     -7.41655031	      7.41501106	      1.66440904	     -3.31332387	     28.16919221	      2.65539371	     62.17568383	    114.26883780	     98.70717341	     36.23005788	      0.17064558	     63.55607399	    106.75992696	    105.99283703
      0.11666670	     -6.63505010	     -1.03314592	     -2.88015185	      0.89743638	      0.92716161	      0.05230046	      3.16795231	     -5.71737617	     -4.77575360	      1.55851850	      0.02720128	      3.07150489	     -8.14497272	     -7.47178907	      3.53748418	     -7.92542383	     -2.71013595	      0.84589537	      0.01476366	      6.95830050	     -2.86324577	     -7.47178907	      7.13127692	      1.60851102	     -3.34429252	     28.28943170	      2.93391373	     62.02754314	    114.03256169	     98.07152734	     36.72835147	      0.29076765	     63.72193341	    107.09604210	    105.10638994
      0.13333330	     -6.64730592	     -1.04916939	     -2.84782876	      0.89639363	      0.92738697	      0.05183522	      3.09310902	     -5.68864163	     -4.87536477	      1.50746424	      0.02631021	      2.63099133	     -9.02050112	     -7.48717411	      3.55110723	     -7.98514485	     -2.70087266	      0.81468478	      0.01421893	      6.67798635	     -2.86523846	     -7.48717411	      6.96409949	      1.59690695	     -3.23092416	     28.42079154	      3.00077732	     61.84450605	    113.91549586	     96.72478950	     37.09712263	      0.43128667	     63.99128493	    107.25165130	    104.18357603
      0.15000000	     -6.62463313	     -1.10014001	     -2.90364899	      0.90261109	      0.92455177	      0.05558426	      2.95176857	     -5.60665708	     -5.30367353	      1.49599051	      0.02610996	      2.58495288	     -9.16889995	     -7.48720963	      3.43380063	     -8.08240789	     -2.82380077	      0.76917027	      0.01342455	      6.60236042	     -2.85951781	     -7.48720963	      7.12382255	      1.59418139	     -3.17612425	     28.32737432	      3.25363088	     61.77197762	    113.96039469	     96.71212979	     37.17664053	      0.49633075	     63.87099108	    107.30449357	    104.17226671
      0.16666670	     -6.55167810	     -1.13702924	     -2.90078673	      0.90119676	      0.92514619	      0.05520799	      2.75221306	     -5.52366946	     -5.47936002	      1.42135631	      0.02480735	      2.23786394	     -9.63128163	     -7.49518462	      3.31135713	     -8.17068680	     -2.87091997	      0.75044044	      0.01309766	      6.44672394	     -2.61804259	     -7.49518462	      7.10413513	      1.58987038	     -3.22230632	     27.91748272	      3.58361500	     61.12668088	    113.87414932	     95.44261570	     36.98801118	      0.50764021	     63.39981902	    107.43466482	    103.01434334
